<svg id="Layer_1" enable-background="new 0 0 511.932 511.932" height="512" viewBox="0 0 511.932 511.932" width="512" xmlns="http://www.w3.org/2000/svg"><g><path d="m371.001 504.432h-244.841c-5.523 0-10-4.477-10-10v-416.075c0-5.523 4.477-10 10-10h244.841c13.255 0 24 10.745 24 24v388.074c0 13.255-10.745 24.001-24 24.001z" fill="#537983"/><path d="m76.521 98.857h286v375.074h-286z" fill="#f3f0f3"/><path d="m309.001 504.432h-238c-13.255 0-24-10.745-24-24v-388.075c0-13.255 10.745-24 24-24h238c13.255 0 24 10.745 24 24v388.074c0 13.255-10.745 24.001-24 24.001z" fill="#7ca1b1"/><path d="m90.155 504.432h-19.154c-13.255 0-24-10.745-24-24v-388.075c0-13.255 10.745-24 24-24h19.154z" fill="#fe646f"/><path d="m309.001 68.357h-30c13.255 0 24 10.745 24 24v388.074c0 13.255-10.745 24-24 24h30c13.255 0 24-10.745 24-24v-388.074c0-13.254-10.745-24-24-24z" fill="#678d98"/><path d="m465.001 143.432c0 17.362-18.754 30.87-25.014 45.967-6.49 15.651-3.025 38.405-14.82 50.199-11.794 11.794-34.549 8.33-50.199 14.819-15.097 6.26-28.606 25.014-45.967 25.014-17.362 0-30.87-18.754-45.967-25.014-15.651-6.49-38.405-3.025-50.199-14.82-11.794-11.794-8.33-34.549-14.819-50.199-6.26-15.097-25.014-28.606-25.014-45.967s18.754-30.87 25.014-45.967c6.49-15.651 3.025-38.405 14.82-50.199 11.794-11.794 34.549-8.33 50.199-14.819 15.097-6.26 28.606-25.014 45.967-25.014 17.362 0 30.87 18.754 45.967 25.014 15.651 6.49 38.405 3.025 50.199 14.82 11.794 11.794 8.33 34.549 14.819 50.199 6.26 15.097 25.014 28.605 25.014 45.967z" fill="#00f2a6"/><path d="m439.987 97.464c-6.49-15.651-3.025-38.405-14.819-50.199s-34.548-8.33-50.199-14.819c-15.097-6.26-28.606-25.014-45.967-25.014-5.309 0-10.256 1.758-15 4.372 10.77 5.934 20.486 16.296 30.967 20.642 15.651 6.49 38.405 3.025 50.199 14.819 11.794 11.795 8.33 34.549 14.819 50.199 6.26 15.097 25.014 28.606 25.014 45.967s-18.754 30.87-25.014 45.967c-6.49 15.651-3.025 38.405-14.819 50.199s-34.549 8.329-50.199 14.819c-10.481 4.346-20.197 14.709-30.967 20.642 4.744 2.614 9.691 4.372 15 4.372 17.362 0 30.87-18.754 45.967-25.014 15.651-6.49 38.405-3.025 50.199-14.819 11.794-11.795 8.33-34.549 14.819-50.199 6.26-15.097 25.014-28.606 25.014-45.967s-18.754-30.869-25.014-45.967z" fill="#05e39c"/><g><path d="m457.016 110.038c-4.142-5.405-8.054-10.51-10.101-15.447-2.192-5.288-3.11-11.898-4.082-18.897-1.692-12.199-3.443-24.813-12.361-33.731-8.92-8.92-21.536-10.67-33.736-12.363l-1.559-.217c-9.889-1.03-11.856 13.142-2.08 14.855l1.577.219c10.197 1.416 19.83 2.752 25.19 8.113 5.36 5.359 6.696 14.989 8.111 25.186 1.059 7.628 2.153 15.517 5.084 22.581 2.8 6.754 7.502 12.891 12.05 18.825 16.419 20.554 16.403 28.002 0 48.541-4.548 5.935-9.25 12.071-12.05 18.824-2.931 7.065-4.025 14.953-5.084 22.581-1.415 10.196-2.752 19.828-8.112 25.188-5.359 5.36-14.989 6.696-25.186 8.111-7.628 1.059-15.517 2.153-22.581 5.084-6.754 2.8-12.891 7.502-18.825 12.05-20.555 16.419-28.002 16.403-48.541 0-5.935-4.548-12.071-9.25-18.824-12.05-7.065-2.931-14.953-4.025-22.581-5.084-10.196-1.415-19.828-2.752-25.188-8.112-5.36-5.359-6.696-14.989-8.111-25.186-1.059-7.628-2.153-15.517-5.084-22.581-2.8-6.754-7.502-12.891-12.05-18.825-16.419-20.554-16.403-28.002 0-48.541 4.548-5.935 9.25-12.071 12.05-18.824 2.931-7.065 4.025-14.953 5.084-22.581 1.415-10.196 2.752-19.828 8.112-25.188 5.359-5.36 14.989-6.696 25.186-8.111 7.628-1.059 15.517-2.153 22.581-5.084 6.754-2.8 12.891-7.502 18.825-12.05 20.554-16.419 28.003-16.404 48.541.001 1.413 1.083 2.822 2.162 4.23 3.211 3.323 2.475 8.021 1.785 10.495-1.536 2.474-3.322 1.786-8.021-1.536-10.495-1.354-1.008-2.708-2.046-4.066-3.087-25.136-20.574-41.689-20.538-66.787.001-5.405 4.141-10.51 8.053-15.447 10.1-5.288 2.192-11.898 3.11-18.897 4.082-12.199 1.692-24.813 3.443-33.731 12.361-5.286 5.286-8.045 11.874-9.776 18.9h-127.523c-.052-.004-.103-.004-.155 0h-19.077c-17.369 0-31.5 14.131-31.5 31.5v38.493c.344 9.931 14.66 9.923 15 0v-38.494c0-9.098 7.402-16.5 16.5-16.5h11.654v421.07h-11.654c-9.098 0-16.5-7.402-16.5-16.5v-313.474c-.344-9.931-14.66-9.923-15 0v313.475c0 17.369 14.131 31.5 31.5 31.5h300c17.369 0 31.5-14.131 31.5-31.5v-224.001c10.308-1.59 20.451-4.011 27.97-11.529 8.919-8.92 10.67-21.534 12.362-33.732.972-6.999 1.89-13.609 4.082-18.898 2.047-4.937 5.959-10.041 10.101-15.446 20.562-25.111 20.544-41.696 0-66.788zm-359.361 386.894v-421.071h117.49c-.963 6.936-1.884 13.484-4.059 18.73-7.317 15.815-25.731 29.034-25.586 48.84-.147 19.801 18.271 33.032 25.586 48.841 2.192 5.288 3.11 11.898 4.082 18.897 1.692 12.199 3.443 24.812 12.361 33.731 8.92 8.919 21.534 10.67 33.732 12.362 6.999.972 13.609 1.89 18.898 4.082 14.806 6.808 27.397 23.586 45.34 25.371v193.715c0 9.098-7.402 16.5-16.5 16.5h-211.344zm273.346 0h-35.181c2.801-4.536 4.478-9.831 4.656-15.5h22.045c4.143 0 7.5-3.357 7.5-7.5v-28c-.344-9.931-14.66-9.923-15 0v20.5h-14.52v-181.572c5.212-1.852 10.019-4.755 14.52-7.923v134.122c.344 9.931 14.66 9.923 15 0v-145.257c5.657-4.032 10.634-5.914 17.48-7.11v221.74c0 9.098-7.402 16.5-16.5 16.5z"/><path d="m321.208 102.768c0-17.062-13.881-30.941-30.942-30.941-41.049 1.699-41.036 60.191 0 61.884 17.061 0 30.942-13.881 30.942-30.943zm-46.884 0c0-8.79 7.151-15.941 15.941-15.941 21.15.875 21.143 31.012 0 31.884-8.789 0-15.941-7.152-15.941-15.943z"/><path d="m340.65 184.095c0 17.062 13.88 30.941 30.941 30.941 41.05-1.7 41.037-60.19 0-61.884-17.061 0-30.941 13.881-30.941 30.943zm46.884 0c0 8.79-7.151 15.941-15.942 15.941-21.149-.876-21.142-31.011 0-31.884 8.791 0 15.942 7.152 15.942 15.943z"/><path d="m273.562 200.8c2.93 2.928 7.677 2.928 10.607 0l104.128-104.129c2.929-2.93 2.929-7.678 0-10.607-2.93-2.928-7.678-2.928-10.607 0l-104.128 104.128c-2.929 2.93-2.929 7.678 0 10.608z"/></g></g></svg>